<svg fill="none" version="1.1" viewBox="0 0 24 25" xmlns="http://www.w3.org/2000/svg">
	<path d="m23.723 0.29123c-0.1351-0.13433-0.3058-0.22733-0.4921-0.26807-0.1862-0.040744-0.3802-0.027535-0.5591 0.038074l-22.026 8c-0.18995 0.07197-0.35349 0.19995-0.46889 0.36696-0.1154 0.167-0.17721 0.36512-0.17721 0.56804 0 0.20293 0.061806 0.40105 0.17721 0.56805 0.1154 0.167 0.27894 0.29499 0.46889 0.36695l9.6112 3.84 3.8444 9.6c0.0722 0.1814 0.1961 0.3377 0.3562 0.4497 0.1601 0.1119 0.3495 0.1746 0.5449 0.1803 0.2023-0.0041 0.3986-0.0694 0.563-0.1872s0.2893-0.2827 0.358-0.4728l8.0093-22c0.0682-0.17692 0.0847-0.36956 0.0475-0.55547-0.0373-0.18591-0.1266-0.35741-0.2577-0.49452zm-8.7201 19.91-2.7933-7 4.7956-4.79-1.4117-1.41-4.8356 4.83-6.968-2.83 17.55-6.33-6.3373 17.53z" fill="#fff" />
</svg>
