<svg fill="none" version="1.1" viewBox="0 0 24 24" xmlns="http://www.w3.org/2000/svg">
 <g clip-path="url(#a)" fill="#fff">
  <path d="m22 6.7c0.3183-0.30947 0.5724-0.67859 0.748-1.0863s0.2692-0.84602 0.2754-1.2899c0.0062-0.44387-0.0751-0.88462-0.2393-1.2971-0.1641-0.41245-0.4079-0.78852-0.7175-1.1067-0.6414-0.61074-1.4974-0.94469-2.383-0.92972-0.8856 0.014971-1.7298 0.37765-2.3503 1.0097l-3.48 3.4333c-0.2659 0.26381-0.6254 0.41183-1 0.41183s-0.734-0.14802-1-0.41183l-0.4467-0.44667-0.9266 0.96 7.5733 7.5733 0.9467-0.9467-0.4467-0.4466c-0.2638-0.266-0.4118-0.6254-0.4118-1s0.148-0.7341 0.4118-1l3.4467-3.4267zm-4.3734 2.5c-0.3531 0.35236-0.6022 0.79525-0.72 1.28l-3.3866-3.3866c0.4847-0.11778 0.9276-0.3669 1.28-0.72l3.44-3.4467c0.3769-0.39128 0.8931-0.61782 1.4363-0.6303 0.5431-0.01249 1.0692 0.19009 1.4637 0.56363 0.3735 0.3945 0.5761 0.92058 0.5636 1.4637-0.0125 0.54314-0.239 1.0594-0.6303 1.4363l-3.4467 3.44z"/>
  <path d="m4.8666 21.007c-0.25019 0.2502-0.58952 0.3907-0.94334 0.3907s-0.69314-0.1405-0.94333-0.3907-0.39074-0.5895-0.39074-0.9434c0-0.3538 0.14055-0.6931 0.39074-0.9433l9.4067-9.4066-0.9467-0.94-9.4067 9.4066c-0.41545 0.4102-0.68479 0.9454-0.76668 1.5235s0.02819 1.167 0.31335 1.6765l-0.98667 0.9867c-0.065558 0.0623-0.11776 0.1372-0.15343 0.2203s-0.054068 0.1726-0.054068 0.263 0.018396 0.1799 0.054068 0.263 0.087875 0.1581 0.15343 0.2203c0.061975 0.0625 0.13571 0.1121 0.21695 0.146 0.081239 0.0338 0.16838 0.0512 0.25639 0.0512 0.088 0 0.17514-0.0174 0.25638-0.0512 0.08124-0.0339 0.15497-0.0835 0.21695-0.146l0.95333-0.96c0.41758 0.2618 0.90052 0.4004 1.3933 0.4 0.35697-1e-4 0.71039-0.0709 1.0399-0.2082s0.62862-0.3384 0.88009-0.5918l9.4066-9.4333-0.94-0.94-9.4066 9.4067z"/>
 </g>
 <defs>
  <clipPath id="a">
   <rect width="24" height="24" fill="#fff"/>
  </clipPath>
 </defs>
</svg>
