<svg fill="none" version="1.1" viewBox="0 0 20 19" xmlns="http://www.w3.org/2000/svg">
	<path d="m0.75 1c0-0.26522 0.10536-0.51957 0.29289-0.70711 0.18754-0.18754 0.44189-0.29289 0.70711-0.29289h12.5c0.2652 0 0.5196 0.10536 0.7071 0.29289 0.1875 0.18754 0.2929 0.44189 0.2929 0.70711v2c0 0.26522-0.1054 0.51957-0.2929 0.70711-0.1875 0.18753-0.4419 0.29289-0.7071 0.29289s-0.5196-0.10536-0.7071-0.29289c-0.1875-0.18754-0.2929-0.44189-0.2929-0.70711v-1h-4.25v8.034c-0.65519 1.0372-1.002 2.2392-1 3.466 0 0.886 0.177 1.73 0.498 2.5h-2.498c-0.26522 0-0.51957-0.1054-0.70711-0.2929-0.18753-0.1875-0.29289-0.4419-0.29289-0.7071s0.10536-0.5196 0.29289-0.7071c0.18754-0.1875 0.44189-0.2929 0.70711-0.2929h1v-12h-4.25v1c0 0.26522-0.10536 0.51957-0.29289 0.70711-0.18754 0.18753-0.44189 0.29289-0.70711 0.29289s-0.51957-0.10536-0.70711-0.29289c-0.18753-0.18754-0.29289-0.44189-0.29289-0.70711v-2zm19.25 12.5c0-1.4587-0.5795-2.8576-1.6109-3.8891-1.0315-1.0314-2.4304-1.6109-3.8891-1.6109s-2.8576 0.57946-3.8891 1.6109c-1.0314 1.0315-1.6109 2.4304-1.6109 3.8891s0.57946 2.8576 1.6109 3.8891c1.0315 1.0314 2.4304 1.6109 3.8891 1.6109s2.8576-0.5795 3.8891-1.6109c1.0314-1.0315 1.6109-2.4304 1.6109-3.8891zm-5 0.5 1e-3 2.503c0 0.1326-0.0527 0.2598-0.1464 0.3536-0.0938 0.0937-0.221 0.1464-0.3536 0.1464s-0.2598-0.0527-0.3536-0.1464c-0.0937-0.0938-0.1464-0.221-0.1464-0.3536v-2.503h-2.505c-0.1326 0-0.2598-0.0527-0.3536-0.1464-0.0937-0.0938-0.1464-0.221-0.1464-0.3536s0.0527-0.2598 0.1464-0.3536c0.0938-0.0937 0.221-0.1464 0.3536-0.1464h2.504v-2.5c0-0.1326 0.0527-0.2598 0.1464-0.3536 0.0938-0.0937 0.221-0.1464 0.3536-0.1464s0.2598 0.0527 0.3536 0.1464c0.0937 0.0938 0.1464 0.221 0.1464 0.3536v2.5h2.497c0.1326 0 0.2598 0.0527 0.3536 0.1464 0.0937 0.0938 0.1464 0.221 0.1464 0.3536s-0.0527 0.2598-0.1464 0.3536c-0.0938 0.0937-0.221 0.1464-0.3536 0.1464h-2.497z" fill="#fff" />
</svg>
